<?xml version="1.0" encoding="UTF-8"?>
<svg width="305.2" height="305.2" version="1.1" viewBox="0 0 305.2 305.2" xml:space="preserve" xmlns="http://www.w3.org/2000/svg" xmlns:cc="http://creativecommons.org/ns#" xmlns:dc="http://purl.org/dc/elements/1.1/" xmlns:rdf="http://www.w3.org/1999/02/22-rdf-syntax-ns#"><metadata><rdf:RDF><cc:Work rdf:about=""><dc:format>image/svg+xml</dc:format><dc:type rdf:resource="http://purl.org/dc/dcmitype/StillImage"/><dc:title/></cc:Work></rdf:RDF></metadata><g transform="matrix(1.3333 0 0 -1.3333 6659.3 -5500.2)"><g transform="translate(-904.97 586.88)"><g transform="matrix(.75 0 0 -.75 -515.71 -24.43)"><path class="awu-red-fill" transform="matrix(1.3333 0 0 -1.3333 1479.6 808.51)" d="m-4454.6-4195.7c0-63.208-51.24-114.45-114.45-114.45-63.209 0-114.45 51.24-114.45 114.45 0 63.209 51.24 114.45 114.45 114.45 63.208 0 114.45-51.24 114.45-114.45" fill="#ed1c24"/><g transform="translate(1479.6 -145.57)" stroke="#f7f7f5" stroke-width="5.3663"><g fill="none"><g><g stroke-miterlimit="10"><path class="awu-white-stroke" d="m-6008.2 6485.8c13.03 17.443 20.59 38.032 20.59 61.479 0 44.413-33.13 85.899-63.71 97.633-16.231 6.6109-34.122 8.6006-46.709 7.9993-19.569-0.01-43.884-8.3529-58.054-20.417-14.17-12.065-29.813-31.626-33.956-46.096l-21.034 6.3568c-5.1437-13.788-7.6035-28.712-7.6035-44.293 0-25.513 4.3112-43.612 17.284-63.497"/><path class="awu-white-stroke" d="m-6193.8 6572.8c-1.8856-7.8577-2.8842-16.061-2.8842-24.497 0-57.715 47.819-105.1 105.53-104.6 29.098 0.2536 55.36 12.388 74.173 31.789"/><path class="awu-white-stroke" d="m-6217.6 6531.7 20.924 3.1877"/><path class="awu-white-stroke" d="m-5968.8 6520.1c1.8053 10.28 3.1967 21.548 3.1821 28.337 0 11.982-1.6631 23.576-4.7705 34.563-0.9334 3.2999-1.997 6.5452-3.1851 9.7298l-21.274-8.3159"/></g><path class="awu-white-stroke" d="m-5975.9 6497.6c-19.705-43.435-61.538-72.658-109.1-76.213-0.3054 8.1086-0.5817 11.496-1.2013 22.088"/></g><path class="awu-white-stroke" d="m-6187.4 6462.8a130.48 130.48 0 0 1 85.917-42.118" stroke-linejoin="round"/><path class="awu-white-stroke" d="m-6088.6 6678.6c-49.754 0-93.036-27.705-115.26-68.53" stroke-miterlimit="10"/><path class="awu-white-stroke" d="m-5982.6 6615.2c-19.108 31.253-50.932 53.884-88.278 60.699" stroke-miterlimit="10"/><path class="awu-white-stroke" d="m-6154.2 6660.3 12.599-21.374" stroke-linejoin="round"/></g><g fill="#ed1c24" stroke-miterlimit="10"><path class="awu-white-stroke" d="m-6195.4 6487c0 4.2667-3.459 7.7257-7.7256 7.7257-4.2668 0-7.7257-3.459-7.7257-7.7257s3.4589-7.7256 7.7257-7.7256c4.2666 0 7.7256 3.4589 7.7256 7.7256z"/><path class="awu-white-stroke" d="m-6014.2 6471.3c0 4.2666-3.4589 7.7255-7.7256 7.7255-4.2656 0-7.7257-3.4589-7.7257-7.7255s3.4601-7.7266 7.7257-7.7266c4.2667 0 7.7256 3.46 7.7256 7.7266z"/><path class="awu-white-stroke" d="m-6187.2 6564.7c0 4.2667-3.4589 7.7267-7.7256 7.7267-4.2657 0-7.7257-3.46-7.7257-7.7267 0-4.2666 3.46-7.7255 7.7257-7.7255 4.2667 0 7.7256 3.4589 7.7256 7.7255z"/><path class="awu-white-stroke" d="m-5967.9 6500.4c0 4.2668-3.4589 7.7257-7.7256 7.7257-4.2668 0-7.7257-3.4589-7.7257-7.7257 0-4.2667 3.4589-7.7257 7.7257-7.7257 4.2667 0 7.7256 3.459 7.7256 7.7257z"/><path class="awu-white-stroke" d="m-6086.9 6678.8c0 4.2666-3.459 7.7266-7.7257 7.7266-4.2656 0-7.7256-3.46-7.7256-7.7266 0-4.2667 3.46-7.7256 7.7256-7.7256 4.2667 0 7.7257 3.4589 7.7257 7.7256z"/></g></g><g fill="#f7f7f5"><path class="awu-white-fill" d="m-4584.6 6455.2 12.534 17.888c2.1244 3.0779 6.3902 3.7546 9.3627 1.4847l4.784-3.6528c2.7597-2.1071 3.3944-6.001 1.4477-8.8754l-5.4859-8.0982-3.9921 1.0419-15.319-21.43-6.6301 4.2511-3.4172 2.3581 7.0542 11.178z"/><path class="awu-white-fill" d="m-4608.9 6410 3.9001 6.0638 7.5614-5.0046-3.7024-5.7568-1.2232-1.8162z"/><path class="awu-white-fill" d="m-4659.6 6389.6c-2.223-3.9705-3.6478-8.3412-4.1672-12.768-0.5262-4.4269-0.1585-8.8995 1.0264-13.088 1.1892-4.1888 3.1945-8.0895 5.8388-11.422 2.6406-3.3376 5.919-6.0929 9.547-8.1136-3.353 2.4549-6.1811 5.5328-8.2826 8.9963-2.1064 3.4603-3.4905 7.2969-4.0913 11.204-0.5965 3.9087-0.409 7.8822 0.5169 11.617 0.9221 3.7385 2.5826 7.2285 4.8105 10.254z"/></g><g fill="none" stroke="#f7f7f5" stroke-miterlimit="10"><g><path class="awu-white-stroke" d="m-4590.3 6379.2c-4.2949 23.418-26.761 38.919-50.177 34.624s-38.919-26.761-34.623-50.178c4.2949-23.417 26.76-38.919 50.177-34.624 23.417 4.2956 38.919 26.761 34.624 50.178z" stroke-width="8.3683"/><path class="awu-white-stroke" d="m-4587.6 6421.4-0.1789-0.2529-7.8305-11.329" stroke-width="4.6385"/><path class="awu-white-stroke" d="m-4578.1 6501.6 2.5449-27.361 7.3025-4.9802 3.2698-2.9533" stroke-width="4.6261"/><path class="awu-white-stroke" d="m-4590.3 6439.5 10.336-7.1317-1.9294-2.796-3.4721-5.0215-0.1474-0.2258-0.01-0.01-7.1039-10.294c-1.4464-2.096-4.375-2.5068-6.3421-0.8901l-1.3267 1.0899-2.7967 2.5857-0.01 5e-4 -14.36 13.261 9.8913 29.783-13.423 45.57" stroke-width="4.6261"/></g><g stroke-linejoin="round"><rect class="awu-white-stroke" transform="rotate(-35.17)" x="-7449.3" y="2592.7" width="22.407" height="56.925" ry="0" stroke-width="4.6261"/><path class="awu-white-stroke" d="m-4568.4 6408.8-18.98 13.189" stroke-width="4.5799"/><path class="awu-white-stroke" d="m-4560.4 6420.3-20.356 13.992" stroke-width="4.5799"/></g><path class="awu-white-stroke" d="m-4598.7 6429.5 16.186 24.671" stroke-width="4.6261"/><path class="awu-white-stroke" d="m-4553 6431.5-18.77 13.139" stroke-linejoin="round" stroke-width="4.5799"/><path class="awu-white-stroke" d="m-4584.9 6446.9-10.481 36.192" stroke-width="4.6385"/></g><path class="awu-white-red" d="m-4591.5 6484c0.2047 2.1188-1.3472 4.0019-3.4659 4.2067-2.1188 0.2048-4.002-1.3459-4.2068-3.4653-0.2054-2.1181 1.3466-4.0025 3.4653-4.2073 2.1188-0.2048 4.002 1.3466 4.2074 3.4659z" fill="#ed1c24" stroke="#f7f7f5" stroke-miterlimit="10" stroke-width="3.63"/></g></g></g></svg>
