<?xml version="1.0" encoding="UTF-8"?>
<svg width="698.82" height="315.2" version="1.1" viewBox="0 0 698.82 315.2" xml:space="preserve" xmlns="http://www.w3.org/2000/svg" xmlns:cc="http://creativecommons.org/ns#" xmlns:dc="http://purl.org/dc/elements/1.1/" xmlns:rdf="http://www.w3.org/1999/02/22-rdf-syntax-ns#"><metadata><rdf:RDF><cc:Work rdf:about=""><dc:format>image/svg+xml</dc:format><dc:type rdf:resource="http://purl.org/dc/dcmitype/StillImage"/><dc:title/></cc:Work></rdf:RDF></metadata><g transform="matrix(1.3333 0 0 -1.3333 6664.3 -5495.2)"><g transform="translate(-904.97 586.88)"><g transform="matrix(.75 0 0 -.75 -515.71 -24.43)"><path class="awu-red-fill" transform="matrix(1.3333 0 0 -1.3333 1479.6 808.51)" d="m-4454.6-4195.7c0-63.208-51.24-114.45-114.45-114.45-63.209 0-114.45 51.24-114.45 114.45 0 63.209 51.24 114.45 114.45 114.45 63.208 0 114.45-51.24 114.45-114.45" fill="#ed1c24"/><g transform="translate(1479.6 -145.57)" stroke="#f7f7f5" stroke-width="5.3663"><g fill="none"><g><g stroke-miterlimit="10"><path class="awu-white-stroke" d="m-6008.2 6485.8c13.03 17.443 20.59 38.032 20.59 61.479 0 44.413-33.13 85.899-63.71 97.633-16.231 6.6109-34.122 8.6006-46.709 7.9993-19.569-0.01-43.884-8.3529-58.054-20.417-14.17-12.065-29.813-31.626-33.956-46.096l-21.034 6.3568c-5.1437-13.788-7.6035-28.712-7.6035-44.293 0-25.513 4.3112-43.612 17.284-63.497"/><path class="awu-white-stroke" d="m-6193.8 6572.8c-1.8856-7.8577-2.8842-16.061-2.8842-24.497 0-57.715 47.819-105.1 105.53-104.6 29.098 0.2536 55.36 12.388 74.173 31.789"/><path class="awu-white-stroke" d="m-6217.6 6531.7 20.924 3.1877"/><path class="awu-white-stroke" d="m-5968.8 6520.1c1.8053 10.28 3.1967 21.548 3.1821 28.337 0 11.982-1.6631 23.576-4.7705 34.563-0.9334 3.2999-1.997 6.5452-3.1851 9.7298l-21.274-8.3159"/></g><path class="awu-white-stroke" d="m-5975.9 6497.6c-19.705-43.435-61.538-72.658-109.1-76.213-0.3054 8.1086-0.5817 11.496-1.2013 22.088"/></g><path class="awu-white-stroke" d="m-6187.4 6462.8a130.48 130.48 0 0 1 85.917-42.118" stroke-linejoin="round"/><path class="awu-white-stroke" d="m-6088.6 6678.6c-49.754 0-93.036-27.705-115.26-68.53" stroke-miterlimit="10"/><path class="awu-white-stroke" d="m-5982.6 6615.2c-19.108 31.253-50.932 53.884-88.278 60.699" stroke-miterlimit="10"/><path class="awu-white-stroke" d="m-6154.2 6660.3 12.599-21.374" stroke-linejoin="round"/></g><g fill="#ed1c24" stroke-miterlimit="10"><path class="awu-white-stroke" d="m-6195.4 6487c0 4.2667-3.459 7.7257-7.7256 7.7257-4.2668 0-7.7257-3.459-7.7257-7.7257s3.4589-7.7256 7.7257-7.7256c4.2666 0 7.7256 3.4589 7.7256 7.7256z"/><path class="awu-white-stroke" d="m-6014.2 6471.3c0 4.2666-3.4589 7.7255-7.7256 7.7255-4.2656 0-7.7257-3.4589-7.7257-7.7255s3.4601-7.7266 7.7257-7.7266c4.2667 0 7.7256 3.46 7.7256 7.7266z"/><path class="awu-white-stroke" d="m-6187.2 6564.7c0 4.2667-3.4589 7.7267-7.7256 7.7267-4.2657 0-7.7257-3.46-7.7257-7.7267 0-4.2666 3.46-7.7255 7.7257-7.7255 4.2667 0 7.7256 3.4589 7.7256 7.7255z"/><path class="awu-white-stroke" d="m-5967.9 6500.4c0 4.2668-3.4589 7.7257-7.7256 7.7257-4.2668 0-7.7257-3.4589-7.7257-7.7257 0-4.2667 3.4589-7.7257 7.7257-7.7257 4.2667 0 7.7256 3.459 7.7256 7.7257z"/><path class="awu-white-stroke" d="m-6086.9 6678.8c0 4.2666-3.459 7.7266-7.7257 7.7266-4.2656 0-7.7256-3.46-7.7256-7.7266 0-4.2667 3.46-7.7256 7.7256-7.7256 4.2667 0 7.7257 3.4589 7.7257 7.7256z"/></g></g><g fill="#f7f7f5"><path class="awu-white-fill" d="m-4584.6 6455.2 12.534 17.888c2.1244 3.0779 6.3902 3.7546 9.3627 1.4847l4.784-3.6528c2.7597-2.1071 3.3944-6.001 1.4477-8.8754l-5.4859-8.0982-3.9921 1.0419-15.319-21.43-6.6301 4.2511-3.4172 2.3581 7.0542 11.178z"/><path class="awu-white-fill" d="m-4608.9 6410 3.9001 6.0638 7.5614-5.0046-3.7024-5.7568-1.2232-1.8162z"/><path class="awu-white-fill" d="m-4659.6 6389.6c-2.223-3.9705-3.6478-8.3412-4.1672-12.768-0.5262-4.4269-0.1585-8.8995 1.0264-13.088 1.1892-4.1888 3.1945-8.0895 5.8388-11.422 2.6406-3.3376 5.919-6.0929 9.547-8.1136-3.353 2.4549-6.1811 5.5328-8.2826 8.9963-2.1064 3.4603-3.4905 7.2969-4.0913 11.204-0.5965 3.9087-0.409 7.8822 0.5169 11.617 0.9221 3.7385 2.5826 7.2285 4.8105 10.254z"/></g><g fill="none" stroke="#f7f7f5" stroke-miterlimit="10"><g><path class="awu-white-stroke" d="m-4590.3 6379.2c-4.2949 23.418-26.761 38.919-50.177 34.624s-38.919-26.761-34.623-50.178c4.2949-23.417 26.76-38.919 50.177-34.624 23.417 4.2956 38.919 26.761 34.624 50.178z" stroke-width="8.3683"/><path class="awu-white-stroke" d="m-4587.6 6421.4-0.1789-0.2529-7.8305-11.329" stroke-width="4.6385"/><path class="awu-white-stroke" d="m-4578.1 6501.6 2.5449-27.361 7.3025-4.9802 3.2698-2.9533" stroke-width="4.6261"/><path class="awu-white-stroke" d="m-4590.3 6439.5 10.336-7.1317-1.9294-2.796-3.4721-5.0215-0.1474-0.2258-0.01-0.01-7.1039-10.294c-1.4464-2.096-4.375-2.5068-6.3421-0.8901l-1.3267 1.0899-2.7967 2.5857-0.01 5e-4 -14.36 13.261 9.8913 29.783-13.423 45.57" stroke-width="4.6261"/></g><g stroke-linejoin="round"><rect class="awu-white-stroke" transform="rotate(-35.17)" x="-7449.3" y="2592.7" width="22.407" height="56.925" ry="0" stroke-width="4.6261"/><path class="awu-white-stroke" d="m-4568.4 6408.8-18.98 13.189" stroke-width="4.5799"/><path class="awu-white-stroke" d="m-4560.4 6420.3-20.356 13.992" stroke-width="4.5799"/></g><path class="awu-white-stroke" d="m-4598.7 6429.5 16.186 24.671" stroke-width="4.6261"/><path class="awu-white-stroke" d="m-4553 6431.5-18.77 13.139" stroke-linejoin="round" stroke-width="4.5799"/><path class="awu-white-stroke" d="m-4584.9 6446.9-10.481 36.192" stroke-width="4.6385"/></g><path class="awu-white-red" d="m-4591.5 6484c0.2047 2.1188-1.3472 4.0019-3.4659 4.2067-2.1188 0.2048-4.002-1.3459-4.2068-3.4653-0.2054-2.1181 1.3466-4.0025 3.4653-4.2073 2.1188-0.2048 4.002 1.3466 4.2074 3.4659z" fill="#ed1c24" stroke="#f7f7f5" stroke-miterlimit="10" stroke-width="3.63"/></g><g transform="translate(0 -315)"><g class="awu-red-fill" fill="#d71e00"><path d="m-3824.5-4567.9c0-10.27 6.9948-16.765 17.931-16.765 10.881 0 17.709 6.4951 17.709 16.765v22.538h-9.8259v-22.538c0-5.2738-3.1642-8.4936-7.8273-8.4936-4.7187 0-8.1051 3.2198-8.1051 8.4936v22.538h-9.8814z"/><path d="m-3783.2-4584.2h9.6039v15.821c0.3885 3.5528 2.6091 6.051 6.1065 6.051 3.2198 0 5.2737-2.165 5.2737-5.6624v-16.21h9.5484v18.874c0 6.9948-4.3301 11.491-10.936 11.491-4.4411-0.055-7.8829-1.8319-9.9924-5.3293v4.8852h-9.6039z"/><path d="m-3746.9-4545.7c0-2.9977 2.1096-5.1072 5.0518-5.1072s5.0517 2.1095 5.0517 5.1072c0 2.9422-2.1095 5.0517-5.0517 5.0517s-5.0518-2.1095-5.0518-5.0517zm0.2221-38.526h9.5483v29.922h-9.5483z"/><path d="m-3732.7-4569.3c0-9.2153 6.5506-15.322 16.376-15.322 9.7704 0 16.321 6.1065 16.321 15.322 0 9.2152-6.5506 15.266-16.321 15.266-9.8259 0-16.376-6.051-16.376-15.266zm9.6593-0.111c0 4.6076 2.7202 7.7718 6.7172 7.7718 3.9415 0 6.6616-3.1642 6.6616-7.7718 0-4.6632-2.7201-7.7719-6.6616-7.7719-3.997 0-6.7172 3.1087-6.7172 7.7719z"/><path d="m-3695.9-4584.2h9.6039v15.821c0.3885 3.5528 2.6091 6.051 6.1065 6.051 3.2197 0 5.2737-2.165 5.2737-5.6624v-16.21h9.5484v18.874c0 6.9948-4.3301 11.491-10.936 11.491-4.4411-0.055-7.8829-1.8319-9.9924-5.3293v4.8852h-9.6039z"/></g><g class="awu-black-fill" transform="scale(1,-1)" fill="#463435" stroke-width=".46261" aria-label=" Workers "><path d="m-3829.9 4494.4 12.713 38.86h10.214l7.3278-26.868 7.2167 26.868h10.159l12.824-38.86h-10.103l-7.4944 28.59-7.6053-28.59h-9.6594l-7.4388 28.59-7.6053-28.59z"/><path d="m-3772.1 4518.3c0 9.2152 6.5505 15.322 16.376 15.322 9.7704 0 16.321-6.1065 16.321-15.322 0-9.2153-6.5506-15.266-16.321-15.266-9.8259 0-16.376 6.051-16.376 15.266zm9.6593 0.111c0-4.6076 2.7202-7.7719 6.7171-7.7719 3.9415 0 6.6617 3.1643 6.6617 7.7719 0 4.6631-2.7202 7.7719-6.6617 7.7719-3.9969 0-6.7171-3.1088-6.7171-7.7719z"/><path d="m-3735.3 4533.3h9.6038v-15.377c0.4996-4.2191 4.1635-6.8282 9.7149-6.3286v-8.6601c-4.2746 0.055-7.6609 1.9985-9.7149 5.4958v-5.0517h-9.6038z"/><path d="m-3712.3 4533.3h9.6039v-8.1605l3.2197-3.3863 6.4951 11.547h11.38l-11.325-18.43 10.992-11.491h-10.881l-9.8814 10.492v-21.761h-9.6039z"/><path d="m-3682.9 4518.4c0 9.1042 6.1064 15.211 15.877 15.211 5.4959 0 9.9925-1.943 13.046-5.2738l-5.0517-4.9407c-1.9985 1.9985-4.5521 3.0532-7.1613 3.0532-3.5528 0-6.1065-1.9984-7.0502-5.5513h21.04c0.6662-10.936-4.5521-17.875-15.1-17.875-9.2708 0-15.599 6.1065-15.599 15.377zm9.4928-2.6647c0.6106-3.6083 2.8867-6.0509 6.2175-6.0509 3.4418 0 5.7734 2.387 5.7734 6.0509z"/><path d="m-3648.1 4533.3h9.6038v-15.377c0.4996-4.2191 4.1635-6.8282 9.7149-6.3286v-8.6601c-4.2745 0.055-7.6609 1.9985-9.7149 5.4958v-5.0517h-9.6038z"/><path d="m-3628.3 4529.4c3.6083 2.7757 8.438 4.219 13.434 4.219 7.2168 0 12.602-3.3863 12.602-9.5483 0.055-10.437-15.71-8.4381-15.71-12.546 0-1.3878 1.2213-2.054 2.9422-2.054 2.4981 0 5.8289 1.0548 9.4373 2.9977l3.2753-6.2175c-3.6639-2.165-7.994-3.3863-12.324-3.3863-6.9392 0-12.158 3.3308-12.158 9.4928-0.055 10.492 15.433 8.216 15.433 12.602 0 1.3878-1.3878 2.054-3.2753 2.054-3.3308 0-7.2168-1.3323-10.603-3.7194z"/></g><g class="awu-black-fill" transform="scale(1,-1)" fill="#463435" stroke-width=".46261" aria-label="Alphabet"><path d="m-3828.7 4479.9h10.159l2.8312-7.1613h16.987l2.7757 7.1613h10.548l-16.376-38.86h-10.159zm15.877-14.656 5.6624-14.378 5.5513 14.378z"/><path d="m-3781.8 4479.9h9.6039v-41.191h-9.6039z"/><path d="m-3766.4 4490.7h9.6039v-14.767c2.1095 2.7757 5.2737 4.3301 9.1597 4.3301 8.3825 0 13.823-6.051 13.823-15.155 0-9.2708-5.6069-15.433-14.045-15.433-3.7749 0-6.8281 1.5544-8.9376 4.2746v-3.9415h-9.6039zm9.6039-25.869c0-4.5521 2.7201-7.7719 6.6061-7.7719 3.9969 0 6.7171 3.2198 6.7171 7.7719 0 4.6076-2.7202 7.8274-6.7171 7.8274-3.886 0-6.6061-3.1643-6.6061-7.8274z"/><path d="m-3730.1 4479.9h9.6038v-14.767c0-4.108 2.3316-7.1057 6.1065-7.1057 3.2753 0 5.2738 2.165 5.2738 5.6623v16.21h9.6039v-18.875c0-6.9947-4.3301-11.491-10.936-11.491-4.4411 0.056-7.9384 1.8319-10.048 5.3848v-16.21h-9.6038z"/><path d="m-3696.2 4471c0 5.4959 3.886 9.3818 10.27 9.3818 4.0525 0 7.2168-1.3323 9.1597-3.8859v3.4418h9.3818v-19.541c-0.055-6.7726-4.8296-10.825-13.046-10.825-4.9963 0-9.2153 1.2213-13.878 3.3863l2.7201 6.3286c3.1643-1.6099 6.4396-2.4982 8.9377-2.4982 3.886 0 5.8289 1.7765 5.8289 4.7187v0.4441h-7.8829c-7.4388 0.056-11.491 3.3863-11.491 9.0487zm8.9932-0.6661c0-2.2206 1.4434-3.2198 4.3301-3.2198h6.0509v2.6646c-0.6106 2.4426-3.1642 4.108-6.162 4.108-2.6646 0-4.219-1.3878-4.219-3.5528z"/><path d="m-3662.4 4479.9h9.6038v-3.997c2.1095 2.7757 5.2738 4.3301 9.1597 4.3301 8.3826 0 13.823-6.051 13.823-15.155 0-9.2708-5.6069-15.433-14.045-15.433-3.7749 0-6.8282 1.5544-8.9377 4.2746v-15.211h-9.6038zm9.6038-15.1c0-4.5521 2.7202-7.7719 6.6061-7.7719 3.997 0 6.7171 3.2198 6.7171 7.7719 0 4.6076-2.7201 7.8274-6.7171 7.8274-3.8859 0-6.6061-3.1643-6.6061-7.8274z"/><path d="m-3627 4465.1c0 9.1042 6.1065 15.211 15.877 15.211 5.4958 0 9.9924-1.943 13.046-5.2738l-5.0518-4.9407c-1.9985 1.9985-4.5521 3.0532-7.1612 3.0532-3.5529 0-6.1065-1.9985-7.0502-5.5513h21.04c0.6661-10.936-4.5521-17.875-15.1-17.875-9.2708 0-15.599 6.1065-15.599 15.377zm9.4928-2.6647c0.6107-3.6084 2.8867-6.051 6.2175-6.051 3.4419 0 5.7734 2.3871 5.7734 6.051z"/><path d="m-3595 4457.7h4.1635v13.212c0 6.2175 4.1636 9.4928 9.937 9.4928 2.8867 0 5.8289-0.7772 7.9939-2.054l-1.8874-6.6616c-1.4434 0.6106-2.7202 0.9992-3.7194 0.9992-1.7765 0.056-2.7757-0.9437-2.7757-3.2753v-11.713h7.8274v-6.3286h-7.8274v-8.2715h-9.5484v8.327h-4.1635z"/></g></g></g></g></svg>
